HIERARCHY
ROOT Hips
{
	OFFSET 0.000000 0.000000 0.000000
	CHANNELS 6 Xposition Yposition Zposition Zrotation Yrotation Xrotation
	JOINT LHipJoint
	{
		OFFSET 0.000000 0.000000 0.000000
		CHANNELS 3 Zrotation Yrotation Xrotation
		JOINT LeftUpLeg
		{
			OFFSET 1.363060 -1.794630 0.839290
			CHANNELS 3 Zrotation Yrotation Xrotation
			JOINT LeftLeg
			{
				OFFSET 2.448110 -6.726130 0.000000
				CHANNELS 3 Zrotation Yrotation Xrotation
				JOINT LeftFoot
				{
					OFFSET 2.562200 -7.039590 0.000000
					CHANNELS 3 Zrotation Yrotation Xrotation
					JOINT LeftToeBase
					{
						OFFSET 0.157640 -0.433110 2.322550
						CHANNELS 3 Zrotation Yrotation Xrotation
						End Site
						{
							OFFSET 0.000000 0.000000 0.000000
						}
					}
				}
			}
		}
	}
	JOINT RHipJoint
	{
		OFFSET 0.000000 0.000000 0.000000
		CHANNELS 3 Zrotation Yrotation Xrotation
		JOINT RightUpLeg
		{
			OFFSET -1.305520 -1.794630 0.839290
			CHANNELS 3 Zrotation Yrotation Xrotation
			JOINT RightLeg
			{
				OFFSET -2.542530 -6.985550 0.000000
				CHANNELS 3 Zrotation Yrotation Xrotation
				JOINT RightFoot
				{
					OFFSET -2.568260 -7.056230 0.000000
					CHANNELS 3 Zrotation Yrotation Xrotation
					JOINT RightToeBase
					{
						OFFSET -0.164730 -0.452590 2.363150
						CHANNELS 3 Zrotation Yrotation Xrotation
						End Site
						{
							OFFSET 0.000000 0.000000 0.000000
						}
					}
				}
			}
		}
	}
	JOINT LowerBack
	{
		OFFSET 0.000000 0.000000 0.000000
		CHANNELS 3 Zrotation Yrotation Xrotation
		JOINT Spine
		{
			OFFSET 0.028270 2.035590 -0.193380
			CHANNELS 3 Zrotation Yrotation Xrotation
			JOINT Spine1
			{
				OFFSET 0.056720 2.048850 -0.042750
				CHANNELS 3 Zrotation Yrotation Xrotation
				JOINT Neck
				{
					OFFSET 0.000000 0.000000 0.000000
					CHANNELS 3 Zrotation Yrotation Xrotation
					JOINT Neck1
					{
						OFFSET -0.054170 1.746240 0.172020
						CHANNELS 3 Zrotation Yrotation Xrotation
						JOINT Head
						{
							OFFSET 0.104070 1.761360 -0.123970
							CHANNELS 3 Zrotation Yrotation Xrotation
							End Site
							{
								OFFSET 0.000000 0.000000 0.000000
							}
						}
					}
				}
				JOINT LeftShoulder
				{
					OFFSET 0.000000 0.000000 0.000000
					CHANNELS 3 Zrotation Yrotation Xrotation
					JOINT LeftArm
					{
						OFFSET 3.362410 1.200890 -0.311210
						CHANNELS 3 Zrotation Yrotation Xrotation
						JOINT LeftForeArm
						{
							OFFSET 4.983000 -0.000000 -0.000000
							CHANNELS 3 Zrotation Yrotation Xrotation
							JOINT LeftHand
							{
								OFFSET 3.483560 -0.000000 -0.000000
								CHANNELS 3 Zrotation Yrotation Xrotation
								JOINT LeftFingerBase
								{
									OFFSET 0.000000 0.000000 0.000000
									CHANNELS 3 Zrotation Yrotation Xrotation
									JOINT LeftHandIndex1
									{
										OFFSET 0.715260 -0.000000 -0.000000
										CHANNELS 3 Zrotation Yrotation Xrotation
										End Site
										{
											OFFSET 0.000000 0.000000 0.000000
										}
									}
								}
								JOINT LThumb
								{
									OFFSET 0.000000 0.000000 0.000000
									CHANNELS 3 Zrotation Yrotation Xrotation
									End Site
									{
										OFFSET 0.000000 0.000000 0.000000
									}
								}
							}
						}
					}
				}
				JOINT RightShoulder
				{
					OFFSET 0.000000 0.000000 0.000000
					CHANNELS 3 Zrotation Yrotation Xrotation
					JOINT RightArm
					{
						OFFSET -3.136600 1.374050 -0.404650
						CHANNELS 3 Zrotation Yrotation Xrotation
						JOINT RightForeArm
						{
							OFFSET -5.241900 -0.000000 -0.000000
							CHANNELS 3 Zrotation Yrotation Xrotation
							JOINT RightHand
							{
								OFFSET -3.444170 -0.000000 -0.000000
								CHANNELS 3 Zrotation Yrotation Xrotation
								JOINT RightFingerBase
								{
									OFFSET 0.000000 0.000000 0.000000
									CHANNELS 3 Zrotation Yrotation Xrotation
									JOINT RightHandIndex1
									{
										OFFSET -0.622530 -0.000000 -0.000000
										CHANNELS 3 Zrotation Yrotation Xrotation
										End Site
										{
											OFFSET 0.000000 0.000000 0.000000
										}
									}
								}
								JOINT RThumb
								{
									OFFSET 0.000000 0.000000 0.000000
									CHANNELS 3 Zrotation Yrotation Xrotation
									End Site
									{
										OFFSET 0.000000 0.000000 0.000000
									}
								}
							}
						}
					}
				}
			}
		}
	}
}
MOTION
Frames: 6
Frame Time: 0.008333
0.022008 0.006306 0.141569 0.214214 0.101037 -0.158193 -0.036478 0.018177 0.128314 -0.403462 0.082731 0.046040 0.060744 0.135680 0.606891 0.149616 -0.693975 -0.461798 -0.010410 0.172151 0.474054 -0.013264 0.047521 -0.079537 -0.308704 -0.462876 -0.663445 -0.317146 -0.582608 1.565704 -0.021776 -0.349006 0.843854 0.031290 -0.116551 0.334240 -0.204511 -0.084536 0.171767 0.009499 -0.092156 -0.023374 0.101562 -0.058564 -0.245140 -0.087719 0.032219 0.198423 -0.033010 0.063367 0.018858 -0.008782 0.007095 -0.024950 0.009012 -0.040185 0.000095 -0.184361 0.011174 -0.845884 -0.036244 0.111298 0.006900 0.028993 0.036505 1.012355 0.428738 -0.232420 -0.247525 0.000000 0.000000 0.000000 0.271835 -0.312605 -0.194484 0.005517 0.018898 -0.012805 0.078544 -0.503821 0.012873 0.183736 -0.110283 0.069260 0.024009 0.105332 -0.162074 -0.287934 -0.729131 0.652195 -0.000000 0.000000 0.000000 -0.328249 -0.968115 0.244559
0.034153 0.002980 0.319878 0.312398 0.186456 -0.013080 0.065259 0.076858 0.152018 -0.296229 0.151341 0.001657 0.039324 0.207840 0.660936 0.175805 -0.389985 -0.165698 -0.007331 0.607289 1.210857 -0.008883 0.036839 -0.042752 -0.093687 -0.358649 -0.516153 -0.271676 -0.578451 1.690993 -0.020423 -0.166575 1.169622 0.035954 -0.056181 0.095063 -0.098166 -0.034494 0.294767 0.037293 -0.038135 0.062707 0.147400 -0.062663 -0.155987 -0.057548 0.047010 0.231345 0.028156 0.153563 0.178481 0.078556 0.020504 0.045249 0.049893 0.023331 0.013049 -0.237108 0.061011 0.161914 -0.002967 0.120804 0.056524 0.001413 0.035876 1.576075 0.700445 0.101071 -0.109363 -0.013898 0.000000 0.000000 0.746938 0.695324 0.386478 0.048300 0.027902 -0.006610 0.672962 -0.639187 0.282984 0.007315 -0.160646 0.214903 0.018880 0.092594 -0.273656 -1.102459 -1.102536 0.209571 0.010667 0.000000 0.000000 -1.436502 -2.135665 -0.258687
-0.055220 -0.115352 0.478776 0.263804 0.058876 -0.146889 0.013197 0.065648 0.113668 -0.361872 0.075655 -0.019203 -0.037212 0.195036 0.326119 0.160883 -0.296438 -0.303393 -0.094369 0.753972 1.601286 -0.106668 -0.017101 -0.119607 -0.276359 -0.482974 -0.721116 -0.300478 -0.698727 1.414722 -0.097969 -0.547806 0.827064 0.016938 0.030918 -0.591708 -0.121998 -0.013852 0.306436 0.030947 -0.023518 0.078929 0.113358 -0.071848 -0.097108 -0.098612 0.005980 0.289150 0.073065 0.122768 0.145667 0.153873 0.012348 0.023249 -0.013097 0.006389 0.002190 -1.186313 -0.074744 0.494221 -0.096146 0.224570 0.110053 -0.024060 0.008308 1.760846 0.653564 0.147997 -0.127365 -0.050050 0.000000 0.000000 0.428836 1.059114 0.592648 0.026001 0.015218 -0.011280 0.991290 -1.002773 0.163768 -0.266510 -0.296381 0.310881 -0.000410 0.083308 -0.305369 -1.591376 -1.305213 0.080275 0.015249 0.000000 0.000000 -2.326736 -2.930775 0.090101
-0.036822 -0.083887 0.903659 0.252441 0.038342 -0.058076 0.154669 0.116945 0.153778 -0.193322 0.171122 0.176411 -0.056029 0.332730 0.322463 0.213359 0.080553 -0.053246 -0.130975 0.954500 2.370730 0.011992 0.003829 -0.069576 -0.067502 -0.415751 -0.568056 -0.259224 -0.718122 1.486684 -0.097646 -0.692255 0.813390 0.039014 0.248812 -1.151781 -0.125726 0.018551 0.359360 0.051812 0.027663 0.163354 0.107805 -0.054092 0.067467 -0.057148 0.012411 0.397832 0.145117 0.140872 0.191638 0.292124 0.044327 0.097246 0.022423 0.089237 0.009813 -1.657594 -0.023331 0.304473 -0.201180 0.427026 0.184349 -0.022495 0.025605 2.313846 0.769376 0.713578 0.066779 -0.048536 0.000000 0.000000 0.744253 1.984915 1.534879 0.098560 0.085440 0.025784 1.952574 -1.101611 0.362811 -0.232751 -0.214406 0.423986 -0.010820 0.089513 -0.142152 -0.771340 -0.915640 0.959821 0.039696 0.000000 0.000000 -1.820226 -2.920689 1.014811
0.033887 0.007667 1.254495 0.379097 0.047251 0.039155 0.283093 0.162011 0.214516 0.016462 0.288434 0.542290 -0.083629 0.429934 0.161905 0.246937 0.540843 0.305034 -0.159179 1.058424 3.087392 0.131494 0.028005 -0.006526 0.143945 -0.384234 -0.398716 -0.241867 -0.709238 1.804814 -0.048627 -0.671724 0.620223 0.076986 0.515920 -1.707449 -0.115595 0.041171 0.382293 0.069170 0.072182 0.226315 0.079633 -0.029082 0.253453 -0.012288 0.027784 0.432073 0.193683 0.117148 0.153395 0.382340 0.060662 0.104709 0.001099 0.107211 0.008564 -1.627953 0.199182 -0.361210 -0.323337 0.586234 0.217187 -0.000812 0.047441 2.884102 0.832682 1.493599 0.265126 -0.048987 0.000000 0.000000 1.133389 2.132162 2.079464 0.077777 0.067414 0.040773 2.575156 -1.122285 0.594757 -0.266512 -0.117524 0.336740 -0.059233 0.097242 0.017204 -0.382357 -0.753803 1.272880 0.045023 0.000000 0.000000 -1.664881 -3.022913 0.286623
-0.057588 -0.091794 0.986611 0.432398 -0.121111 -0.219669 0.108732 0.051169 0.136800 -0.195798 0.098922 0.268862 -0.261813 0.154131 -0.985201 0.159264 0.561397 0.065232 -0.288835 0.931582 2.813804 -0.129813 -0.082052 -0.170709 -0.395902 -0.736555 -0.828844 -0.329816 -0.864356 1.683369 -0.105772 -1.111067 -0.259021 0.040242 0.589122 -2.719544 -0.188508 0.014659 0.239694 0.032370 0.044080 0.158314 -0.040592 -0.056630 0.235448 -0.141268 -0.072406 0.245445 0.176444 -0.026810 -0.061737 0.376680 0.026157 0.012272 -0.120006 0.012812 -0.018083 -2.232839 0.209777 -1.664498 -0.555785 0.654873 0.205515 0.014324 0.040869 3.126006 0.710105 2.093345 0.297269 -0.094890 0.000000 0.000000 0.771221 1.581747 2.109883 0.076523 -0.005956 0.012518 2.565521 -1.470163 0.175161 -0.851188 -0.473709 -0.015850 -0.130560 0.083754 -0.030450 -1.877167 -1.490608 0.170611 0.006839 0.000000 0.000000 -3.123006 -3.933399 -2.057551
